<svg width="10" height="8" viewBox="0 0 10 8" fill="none" xmlns="http://www.w3.org/2000/svg">
<path d="M8.43441 0.982234C9.3772 1.92697 9.40958 3.43208 8.53274 4.41375L4.99995 7.95208L1.46724 4.41375C0.590432 3.43208 0.623207 1.92459 1.56556 0.982234C2.50898 0.0388128 4.01882 0.00702947 5.00041 0.886888C5.97916 0.00833362 7.49166 0.0375003 8.43441 0.982234ZM2.15482 1.57149C1.53409 2.19221 1.50293 3.18638 2.07497 3.843L4.99995 6.77263L7.92504 3.843C8.49729 3.18613 8.46624 2.19385 7.84458 1.57088C7.22487 0.949913 6.22741 0.920025 5.57262 1.49323L3.82148 3.24454L3.23223 2.65527L4.40916 1.4775L4.37508 1.44875C3.71893 0.921654 2.75967 0.966638 2.15482 1.57149Z" fill="white"/>
</svg>
