<svg width="143" height="42" viewBox="0 0 143 42" fill="none" xmlns="http://www.w3.org/2000/svg">
<path d="M73.0977 1.14648C81.4466 0.704577 90.0155 0.552691 98.4922 1.10742H98.4912C102.739 1.36901 106.931 1.84596 111.008 2.48633H111.01C113.031 2.82532 115.053 3.18222 117.006 3.625L117.745 3.78613C118.479 3.95331 119.197 4.13697 119.914 4.30762L119.919 4.30859C120.395 4.43108 120.867 4.56107 121.335 4.6875H121.334C121.803 4.81178 122.282 4.93973 122.742 5.08301H122.741C128.152 6.66344 133.033 8.80157 136.512 11.4971C139.963 14.1711 142.035 17.3173 142.235 20.5781L142.248 20.8848C142.282 22.4152 141.88 23.9573 140.986 25.4326C140.043 27.0079 138.516 28.4949 136.588 29.792L136.587 29.791C134.659 31.0952 132.335 32.2319 129.807 33.1953L129.806 33.1943C127.278 34.1624 124.562 34.9759 121.77 35.6777C116.749 36.9422 111.452 37.8417 106.17 38.584C100.867 39.3313 95.4745 39.9203 90.0322 40.3525C79.1427 41.217 68.0586 41.4532 57.0547 41.0771H57.0537C51.887 40.8989 46.7345 40.5963 41.627 40.1494C37.1167 39.7518 32.643 39.1935 28.29 38.418L26.4326 38.0723C23.9652 37.5978 21.542 37.0396 19.1982 36.3936V36.3926C16.8539 35.7512 14.5927 35.0074 12.4756 34.1543V34.1533C10.3515 33.3042 8.40486 32.322 6.70215 31.2266H6.70117C4.99996 30.1288 3.60493 28.8935 2.57617 27.582L2.5752 27.5811C0.808899 25.3095 0.286285 22.7262 1.1748 20.3115C1.99891 17.9087 4.01711 15.6989 6.66016 13.7812L6.66113 13.7803C9.34098 11.8628 12.6892 10.1981 16.5215 8.87207C18.4379 8.20773 20.469 7.62712 22.6045 7.13965H22.6055C23.1418 7.01964 23.6828 6.90707 24.2217 6.79492L24.2285 6.79395L25.8564 6.49805C26.9351 6.28498 28.0636 6.14225 29.1562 5.97559L29.5518 5.91699C29.9506 5.86264 30.358 5.81886 30.7559 5.77344C31.0227 5.74298 31.2912 5.71274 31.5596 5.68164C31.8277 5.65056 32.0961 5.61937 32.3633 5.58887L32.3682 5.58789L35.624 5.2832L35.6309 5.28223C36.1724 5.24581 36.7107 5.20035 37.248 5.1543C37.7846 5.10831 38.3207 5.0614 38.8545 5.02344L39.6455 4.96289C39.908 4.94162 40.1694 4.91881 40.4277 4.89453C40.5573 4.88236 40.6869 4.87057 40.8164 4.8584C40.9462 4.84621 41.0763 4.83446 41.2061 4.82227L41.209 4.82129C41.4735 4.79892 41.7208 4.77995 41.9775 4.75781H41.9824C42.3147 4.73607 42.6262 4.75021 42.9297 4.77051C43.2369 4.79106 43.5291 4.81729 43.8457 4.82324H43.8467C44.4943 4.83796 45.143 4.85987 45.7988 4.8623H45.7979C47.1218 4.8623 48.4617 4.89116 49.7998 4.90332H49.8047C52.4563 4.97382 55.1364 5.10772 57.3857 5.61719L58.6074 5.74902L58.6123 5.75L59.8252 5.90332C60.6271 6.00554 61.4336 6.09307 62.2197 6.18359H62.2188C65.8405 6.55665 68.0544 6.96819 69.0195 7.30859L69.0205 7.30957C69.2551 7.39295 69.4575 7.48656 69.5771 7.60645C69.641 7.67047 69.7075 7.76897 69.707 7.89746C69.7064 8.02713 69.6372 8.12399 69.5713 8.18652C69.4495 8.30199 69.2482 8.38531 69.0254 8.4541C68.7901 8.52672 68.4854 8.59525 68.1182 8.66309C67.9918 8.68698 67.9265 8.72082 67.8721 8.75391C67.8262 8.78185 67.7204 8.85889 67.6055 8.91016C67.3512 9.0235 66.9678 9.07245 66.1123 9.01172C64.2258 8.98963 62.2443 8.82181 60.2441 8.62598L58.2412 8.42578C55.5644 8.15929 52.844 7.84525 50.207 7.7334H50.2051C43.7453 7.4314 37.2103 7.58316 31.0576 8.41504L31.0566 8.41406L28.7744 8.76172L28.7754 8.7627C28.0199 8.88172 27.3052 9.03431 26.5459 9.17285L26.5469 9.17383C25.0773 9.45526 23.6865 9.79777 22.3291 10.1816V10.1807C19.6218 10.955 17.1449 11.9214 14.958 13.0215C12.7725 14.121 10.9155 15.3676 9.46289 16.6982C8.01042 18.0311 7.00286 19.4522 6.55078 20.8857C6.10109 22.3118 6.20118 23.7604 6.91309 25.1416L7.05859 25.4043C7.76808 26.6291 8.88046 27.8074 10.3955 28.8779L10.7256 29.1064L10.7275 29.1074C12.9129 30.5996 15.7851 31.8766 19.0039 32.9414C22.2262 34.0081 25.7804 34.871 29.4824 35.5674C33.184 36.2636 37.0361 36.7973 40.9492 37.1846H40.9482L42.417 37.3232H42.418L43.9111 37.4453H43.9102C44.9122 37.5237 45.9013 37.6115 46.8984 37.6797H46.8975C48.9011 37.8091 50.9 37.945 52.9033 38.0254H52.9053C57.3044 38.2252 61.7164 38.2475 66.1943 38.3281L66.1934 38.3389C70.8423 38.3277 75.4774 38.1803 80.0996 37.9766L81.7461 37.8955C89.9735 37.4642 98.1278 36.6923 106.049 35.5293H106.05C110.289 34.9298 114.396 34.2092 118.281 33.3037L119.718 32.9521C123.043 32.1112 126.16 31.1195 128.789 29.9092C129.092 29.766 129.384 29.6226 129.649 29.4717L130.383 29.0205L130.378 29.0107C132.026 28.1231 133.411 27.1412 134.432 26.0938H134.433C135.457 25.0519 136.137 23.9315 136.483 22.7852C137.123 20.4989 136.442 18.0838 134.694 15.835L134.292 15.3496C133.314 14.2254 132.065 13.1515 130.573 12.167V12.166C128.873 11.0456 126.812 10.0114 124.562 9.10352C120.035 7.28029 114.647 5.94236 108.952 5.03906C103.244 4.12877 97.2389 3.6809 91.1406 3.54688C85.0422 3.41042 78.8715 3.58288 72.6934 3.89258V3.89355C70.7698 3.98342 68.1521 4.15955 66.0068 4.20996C64.9341 4.23516 63.9666 4.22977 63.2549 4.16406C62.901 4.13139 62.5956 4.0826 62.3682 4.00977C62.255 3.97351 62.1469 3.92665 62.0596 3.86328C61.9718 3.79945 61.8852 3.70237 61.8604 3.56543L61.8594 3.56445C61.82 3.33848 61.9371 3.15156 62.083 3.0166C62.2287 2.88194 62.4389 2.7628 62.6914 2.6543C63.2007 2.43555 63.9542 2.22919 64.9131 2.03906C66.8363 1.65774 69.6408 1.33227 73.0977 1.14648Z" fill="#ED893E" stroke="#ED893E" stroke-width="0.5"/>
</svg>
