<svg width="25" height="25" viewBox="0 0 25 25" fill="none" xmlns="http://www.w3.org/2000/svg">
<path d="M22.1488 20.3751C20.7209 17.9067 18.5206 16.1367 15.9528 15.2976C17.223 14.5415 18.2098 13.3893 18.7618 12.018C19.3137 10.6468 19.4003 9.13224 19.0082 7.70701C18.6161 6.28178 17.767 5.02467 16.5912 4.12873C15.4155 3.23279 13.9782 2.74756 12.5 2.74756C11.0218 2.74756 9.58451 3.23279 8.40878 4.12873C7.23306 5.02467 6.38394 6.28178 5.99183 7.70701C5.59971 9.13224 5.68629 10.6468 6.23825 12.018C6.79021 13.3893 7.77704 14.5415 9.0472 15.2976C6.47938 16.1357 4.27907 17.9057 2.85126 20.3751C2.7989 20.4605 2.76417 20.5555 2.74912 20.6545C2.73407 20.7535 2.739 20.8545 2.76363 20.9516C2.78825 21.0487 2.83207 21.1399 2.8925 21.2197C2.95293 21.2996 3.02874 21.3666 3.11547 21.4167C3.2022 21.4667 3.29808 21.499 3.39745 21.5114C3.49683 21.5238 3.5977 21.5163 3.69409 21.4891C3.79049 21.4619 3.88047 21.4157 3.95872 21.3532C4.03697 21.2907 4.1019 21.2131 4.1497 21.1251C5.91595 18.0726 9.03782 16.2501 12.5 16.2501C15.9622 16.2501 19.0841 18.0726 20.8503 21.1251C20.8981 21.2131 20.9631 21.2907 21.0413 21.3532C21.1196 21.4157 21.2095 21.4619 21.3059 21.4891C21.4023 21.5163 21.5032 21.5238 21.6026 21.5114C21.7019 21.499 21.7978 21.4667 21.8845 21.4167C21.9713 21.3666 22.0471 21.2996 22.1075 21.2197C22.1679 21.1399 22.2118 21.0487 22.2364 20.9516C22.261 20.8545 22.266 20.7535 22.2509 20.6545C22.2358 20.5555 22.2011 20.4605 22.1488 20.3751ZM7.25001 9.50011C7.25001 8.46176 7.55792 7.44672 8.13479 6.58337C8.71167 5.72001 9.53161 5.0471 10.4909 4.64974C11.4502 4.25238 12.5058 4.14841 13.5242 4.35099C14.5426 4.55356 15.4781 5.05357 16.2123 5.7878C16.9465 6.52202 17.4466 7.45748 17.6491 8.47589C17.8517 9.49429 17.7477 10.5499 17.3504 11.5092C16.953 12.4685 16.2801 13.2884 15.4168 13.8653C14.5534 14.4422 13.5384 14.7501 12.5 14.7501C11.1081 14.7486 9.77359 14.195 8.78934 13.2108C7.8051 12.2265 7.2515 10.892 7.25001 9.50011Z" fill="black"/>
</svg>
